<svg width="68" height="68" viewBox="0 0 68 68" fill="none" xmlns="http://www.w3.org/2000/svg">
<path d="M5.80387 64.4966C5.73596 64.4302 5.66352 64.3668 5.5941 64.3049C5.39941 64.1314 5.21529 63.9669 5.15341 63.7978C5.06286 63.5503 5.08701 63.3134 5.22284 63.1142C5.39337 62.8637 5.72238 62.7082 6.10269 62.6976C6.40302 62.6901 6.7275 62.6856 7.1214 62.6856C7.38702 62.6856 7.65566 62.6871 7.92731 62.6886C8.20802 62.6901 8.49326 62.6916 8.78453 62.6916H9.08637V61.6729C9.08637 60.707 9.09241 59.7411 9.09844 58.7752C9.11203 56.5628 9.12712 54.2763 9.06373 52.0261C9.03506 50.9908 9.33991 50.1125 9.94661 49.4892C10.5276 48.8915 11.3592 48.5625 12.2874 48.5625C12.3553 48.5625 12.4232 48.564 12.4926 48.5686C13.0676 48.5972 13.6849 48.6123 14.4319 48.6123C14.9375 48.6123 15.4446 48.6063 15.9517 48.6003C16.4558 48.5942 16.9598 48.5882 17.4639 48.5882H17.568C19.6809 48.5912 20.849 49.7593 20.8566 51.8752C20.8641 54.1481 20.8626 56.4601 20.8611 58.6953C20.8611 59.6551 20.8596 60.6134 20.8596 61.5733V62.6433H28.1641V56.2956C28.1641 51.4345 28.1626 46.5749 28.1671 41.7138C28.1686 40.0326 29.0183 38.8796 30.4973 38.5505C30.8097 38.4811 31.1523 38.4736 31.4496 38.4721C32.3446 38.4675 33.238 38.466 34.1329 38.466C34.9072 38.466 35.6814 38.4675 36.4556 38.4675H36.6292C38.7767 38.4706 39.9584 39.6462 39.9599 41.7772C39.9614 46.5629 39.9615 51.3485 39.9615 56.1342V62.6524H47.2856V52.912C47.2871 43.5746 47.2886 33.9203 47.2765 24.4245C47.275 22.8987 47.8062 21.9389 48.9502 21.4001C49.3381 21.2175 49.8648 21.1178 50.5168 21.1028C51.2532 21.0862 52.0425 21.0786 53.0009 21.0786C53.6529 21.0786 54.3048 21.0816 54.9583 21.0862L55.811 21.0907C57.8937 21.0997 59.0452 22.2588 59.0527 24.3551C59.0603 26.4015 59.0588 28.4812 59.0573 30.493C59.0573 31.3577 59.0558 32.224 59.0558 33.0888V62.6916H60.7612C61.0434 62.6916 61.3196 62.6916 61.5972 62.6916C62.5646 62.6931 62.7789 63.0583 62.8544 63.333C62.9691 63.745 62.9012 64.0559 62.2281 64.4981H5.80387V64.4966ZM50.7341 22.8942C49.3683 22.8942 49.0921 23.1749 49.0921 24.5633V62.6614H57.1844L57.2055 62.3837C57.21 62.3249 57.2161 62.2705 57.2206 62.2162C57.2327 62.097 57.2432 61.9853 57.2432 61.8676C57.2447 49.3594 57.2462 36.8512 57.2432 24.343C57.2432 23.2654 56.878 22.9002 55.7944 22.8972C55.0413 22.8942 54.2882 22.8942 53.5351 22.8942H50.7341ZM31.6473 40.2725C30.3162 40.2725 29.9721 40.6151 29.9721 41.9342V62.6569H38.1006L38.1263 62.3837C38.1308 62.343 38.1338 62.3083 38.1383 62.2766C38.1459 62.2056 38.1534 62.1453 38.1534 62.0774V59.8951C38.1549 53.8009 38.1549 47.7053 38.1519 41.6112C38.1519 40.7027 37.7112 40.2786 36.7665 40.2756C36.027 40.2725 35.286 40.2725 34.5465 40.2725H31.6473ZM15.096 50.3902C14.1769 50.3902 13.2578 50.3917 12.3387 50.3932C11.2898 50.3947 10.9004 50.7886 10.8989 51.845C10.8959 53.7587 10.8974 55.6723 10.8974 57.586V62.6433H18.9444L18.9988 62.4109C19.0048 62.3837 19.0108 62.3626 19.0169 62.3445C19.0304 62.2977 19.0455 62.2434 19.0455 62.1785L19.0486 59.8438C19.0531 57.1755 19.0561 54.4152 19.0486 51.7017C19.0455 50.8158 18.6184 50.4007 17.7008 50.3977C16.83 50.3917 15.9623 50.3902 15.096 50.3902Z" fill="white"/>
<path d="M16.3237 36.3275C16.0943 36.3275 15.8709 36.2415 15.7125 36.089C15.4212 35.8113 15.3563 35.3676 15.5585 35.0311C15.6808 34.8258 15.8543 34.6417 16.0083 34.4878C23.0049 27.4851 30.003 20.487 37.0012 13.4874C37.4222 13.0663 37.7256 12.8776 37.9852 12.8776C38.2432 12.8776 38.5451 13.0633 38.9616 13.4798C39.9501 14.4683 40.9372 15.4584 41.903 16.4257L43.2387 17.7644L55.7952 5.20791H51.2631C50.6896 5.20791 50.27 5.08869 50.0497 4.86231C49.9108 4.72044 49.8459 4.5318 49.852 4.28882C49.8565 4.06998 49.8716 3.40292 51.2495 3.40141L54.9893 3.3999C55.931 3.3999 56.8727 3.3999 57.8145 3.40292C58.7396 3.40594 59.0399 3.68966 59.0475 4.57556C59.0565 5.67727 59.055 6.79709 59.0535 7.88069C59.052 8.92958 59.0505 10.0132 59.058 11.0802C59.0611 11.4333 58.9599 11.7231 58.7668 11.9178C58.6038 12.0823 58.3834 12.1713 58.1465 12.1713C58.0031 12.1713 57.8643 12.1366 57.745 12.0732C57.3934 11.8846 57.2485 11.5767 57.2485 11.0138C57.247 10.2924 57.247 9.5725 57.247 8.8511V6.53751L56.7369 7.02347C56.6448 7.11101 56.5679 7.18496 56.4985 7.24985C56.3702 7.3721 56.2706 7.46416 56.1755 7.56075L44.3328 19.3989C43.8982 19.8335 43.5888 20.0282 43.3322 20.0282C43.0757 20.0282 42.7693 19.835 42.3377 19.4034C41.3612 18.4269 40.3848 17.449 39.3419 16.4031L37.7995 14.8577L37.6003 15.1912C37.552 15.2742 37.5083 15.3572 37.466 15.4387C37.3936 15.5791 37.3317 15.7013 37.2532 15.7798C30.9734 22.0716 24.7616 28.282 17.3666 35.6725C17.1915 35.8476 16.9923 36.0468 16.781 36.1886C16.6497 36.2807 16.4912 36.3275 16.3237 36.3275Z" fill="white"/>
<path d="M12.2632 40.5321C11.7728 40.5321 11.3864 40.1488 11.3819 39.6598C11.3773 39.1753 11.7773 38.7633 12.2542 38.7588C12.7281 38.7588 13.1416 39.1723 13.1476 39.6447C13.1507 39.8786 13.0616 40.099 12.8956 40.268C12.7296 40.437 12.5077 40.5321 12.2708 40.5336L12.2632 40.5321Z" fill="white"/>
</svg>
