<svg width="68" height="68" viewBox="0 0 68 68" fill="none" xmlns="http://www.w3.org/2000/svg">
<path d="M64.0005 51.464C63.8112 51.8881 63.6776 52.3505 63.4208 52.7291C62.0029 54.8206 59.0954 54.7428 57.7701 52.5662C56.8072 50.984 55.9075 49.3637 54.9814 47.7595C54.2989 46.5779 53.6091 45.3994 52.9413 44.2076C52.7828 43.9243 52.6287 43.8583 52.2955 43.9155C46.5597 44.9003 41.4418 42.0002 39.3385 36.5902C37.1737 31.0246 40.1194 24.279 45.682 22.0642C51.8684 19.5999 58.5494 22.4634 60.8743 28.7071C62.3537 32.6816 61.6478 36.4184 59.091 39.8001C58.9149 40.0319 58.7241 40.2536 58.5215 40.5002C58.6771 40.7805 58.8224 41.052 58.9765 41.3191C60.2725 43.5662 61.5847 45.8045 62.8601 48.0618C63.2872 48.8177 63.6218 49.6249 63.999 50.4087C64.0005 50.7609 64.0005 51.1117 64.0005 51.464ZM50.1057 22.9302C44.6913 22.9316 40.3968 27.2951 40.407 32.7859C40.4158 38.1063 44.7999 42.3759 50.251 42.3744C55.5538 42.3729 59.8278 37.986 59.8483 32.5246C59.866 27.323 55.4026 22.9287 50.1057 22.9302ZM54.4706 43.346C54.8655 44.0315 55.2529 44.7051 55.6419 45.3788C56.8205 47.4219 57.9961 49.4664 59.1791 51.5065C59.6267 52.2785 60.2505 52.6073 60.9462 52.4591C62.1027 52.214 62.5621 51.0603 61.9208 49.939C60.4692 47.4013 59.0015 44.8725 57.5396 42.3407C57.4237 42.1411 57.3019 41.9444 57.1962 41.7683C56.2891 42.2952 55.4144 42.8001 54.4706 43.346Z" fill="white"/>
<path d="M37.0272 54.1074C37.1622 54.3833 37.2518 54.5712 37.3472 54.7561C38.5463 57.1001 39.7469 59.444 40.9445 61.7879C41.0414 61.9787 41.2146 62.196 41.1838 62.3706C41.1236 62.7009 41.0223 63.1015 40.7904 63.3056C40.4793 63.5786 40.0433 63.5096 39.7425 63.172C39.5898 63.0003 39.4871 62.7816 39.3814 62.5746C38.0267 59.9386 36.6647 57.3041 35.332 54.6563C35.1294 54.2542 34.9152 54.0898 34.4484 54.0942C31.5967 54.1177 28.7449 54.1147 25.8946 54.0971C25.466 54.0942 25.2429 54.2263 25.0463 54.6167C23.7062 57.2821 22.3354 59.9342 20.9734 62.5878C20.875 62.7786 20.7796 62.9753 20.6461 63.1397C20.3584 63.4934 19.9709 63.536 19.5893 63.3437C19.2004 63.147 19.0374 62.7933 19.1563 62.3604C19.2121 62.1563 19.3207 61.9655 19.4191 61.7747C20.6167 59.4293 21.8173 57.0869 23.0149 54.7429C23.1015 54.5727 23.1808 54.398 23.3188 54.1089C23.034 54.1089 22.8329 54.1089 22.6333 54.1089C20.0942 54.1089 17.5551 54.1103 15.0159 54.1089C13.2781 54.1074 12.5531 53.3838 12.5516 51.6607C12.5516 51.194 12.5516 50.7273 12.5516 50.1739C12.3153 50.1739 12.1098 50.1739 11.9044 50.1739C10.1857 50.1739 8.46698 50.1783 6.74829 50.1725C5.0296 50.1666 4.00367 49.1539 4.0022 47.4469C3.99927 35.513 3.99927 23.5805 4.0022 11.6465C4.0022 9.97037 5.02813 8.94737 6.70573 8.93563C7.95622 8.92536 9.20525 8.92389 10.4557 8.93857C11.1632 8.94737 11.6123 9.41411 11.4758 9.98358C11.3525 10.4987 10.9841 10.6954 10.4719 10.6925C9.26102 10.6866 8.05015 10.6881 6.83929 10.6925C5.98949 10.6954 5.75905 10.9229 5.75905 11.7654C5.75759 23.6201 5.75759 35.4763 5.75905 47.331C5.75905 48.2175 5.97774 48.4156 6.9435 48.4156C22.1196 48.4156 37.2943 48.4156 52.4705 48.4156C52.6847 48.4156 52.902 48.3995 53.1148 48.4274C53.5977 48.489 53.9059 48.7473 53.9323 49.2596C53.9573 49.7395 53.6358 50.1079 53.1207 50.1563C52.7523 50.1916 52.3795 50.171 52.0081 50.1725C50.6432 50.1739 49.2767 50.1725 47.8163 50.1725C47.8163 50.7331 47.8193 51.2703 47.8163 51.8075C47.8075 53.2972 47.0341 54.0957 45.5443 54.103C42.9465 54.1162 40.3486 54.1074 37.7522 54.1074C37.5409 54.1074 37.331 54.1074 37.0272 54.1074ZM46.0566 50.2106C35.423 50.2106 24.8863 50.2106 14.3598 50.2106C14.3378 50.284 14.3188 50.3207 14.3188 50.3559C14.3144 50.7463 14.3114 51.1368 14.3114 51.5272C14.3114 52.3462 14.3114 52.3476 15.1598 52.3476C25.1784 52.3476 35.197 52.3476 45.2141 52.3476C45.3506 52.3476 45.5164 52.3946 45.6177 52.3329C45.7865 52.2317 46.0228 52.0717 46.0375 51.919C46.0874 51.3643 46.0566 50.7992 46.0566 50.2106Z" fill="white"/>
<path d="M31.2978 28.0775C31.449 27.6577 31.1877 27.4361 30.7988 27.2306C30.0224 26.8226 29.2782 26.3529 28.4974 25.9522C28.3242 25.8642 28.0072 25.8789 27.8399 25.9816C26.6892 26.6949 25.5708 26.692 24.4289 25.9654C24.2763 25.8686 23.9798 25.8524 23.8213 25.9361C22.992 26.3705 22.1965 26.8666 21.3673 27.3011C21.0312 27.4772 20.971 27.6929 20.9842 28.0437C21.0414 29.6112 19.8893 30.941 18.3996 31.0687C16.7763 31.2081 15.4186 30.169 15.1926 28.5662C15.0238 27.373 15.4803 26.3999 16.471 25.7424C17.5087 25.0525 18.6197 25.0555 19.6633 25.735C19.9979 25.9522 20.2092 25.9728 20.5351 25.7746C21.3012 25.3094 22.085 24.8691 22.8731 24.442C23.1432 24.2952 23.2547 24.1411 23.2415 23.8094C23.1711 22.0408 24.4524 20.6655 26.1388 20.6611C27.8428 20.6553 29.0948 22.0349 29.0698 23.8563C29.0669 24.0369 29.2107 24.2967 29.3648 24.3906C30.197 24.8984 31.0468 25.3798 31.9098 25.8319C32.0625 25.9126 32.3516 25.8833 32.5057 25.7879C33.197 25.3563 33.9162 25.1626 34.7352 25.2859C34.9289 25.3153 35.2386 25.1993 35.3516 25.0437C36.8135 23.0418 38.2562 21.0266 39.6799 18.9968C39.79 18.8397 39.8061 18.5168 39.721 18.3407C39.0752 17.0153 39.3262 15.5814 40.4006 14.6714C41.4235 13.804 42.9103 13.7453 43.9818 14.5276C45.0826 15.3319 45.4979 16.7878 44.9798 18.0251C44.4426 19.3094 43.151 19.9787 41.6775 19.7702C41.5175 19.7482 41.2621 19.8539 41.1667 19.986C39.6873 22.0232 38.2342 24.0794 36.7504 26.1137C36.5243 26.4234 36.6917 26.5995 36.812 26.8358C37.3712 27.9322 37.1877 29.237 36.3541 30.1572C35.5659 31.0261 34.2391 31.3241 33.1295 30.8823C32.0141 30.4376 31.2875 29.35 31.2978 28.0775ZM26.1564 22.4253C25.5444 22.418 24.9925 22.961 24.9852 23.5775C24.9778 24.1983 25.5106 24.7384 26.1344 24.7443C26.7582 24.7502 27.3027 24.2203 27.3086 23.5995C27.3159 22.986 26.7743 22.4341 26.1564 22.4253ZM42.2646 15.734C41.6422 15.7428 41.1256 16.2815 41.1329 16.9141C41.1388 17.5481 41.6672 18.0706 42.2939 18.0604C42.9192 18.0515 43.4431 17.5114 43.4343 16.8862C43.424 16.2624 42.8795 15.7252 42.2646 15.734ZM35.378 28.1876C35.3898 27.5814 34.8438 27.0193 34.2303 27.0061C33.6153 26.9928 33.0693 27.5286 33.0605 28.1523C33.0503 28.7923 33.5552 29.3133 34.1951 29.3221C34.8218 29.3309 35.3663 28.8084 35.378 28.1876ZM19.2376 28.1802C19.2435 27.5638 18.7034 27.0119 18.0899 27.0046C17.4822 26.9987 16.923 27.5476 16.9157 28.1597C16.9084 28.7791 17.4411 29.3148 18.0693 29.3206C18.7048 29.325 19.2318 28.8113 19.2376 28.1802Z" fill="white"/>
<path d="M25.312 8.93255C25.312 8.32639 25.3002 7.7848 25.3149 7.24322C25.3487 5.95163 26.1823 5.05926 27.4783 5.02991C29.2748 4.99028 31.0727 4.99028 32.8677 5.02844C34.1755 5.05633 35.0282 5.97805 35.0546 7.29018C35.0649 7.81416 35.0561 8.33813 35.0561 8.93255C35.3276 8.93255 35.5551 8.93255 35.7812 8.93255C41.6593 8.93255 47.539 8.93255 53.4172 8.93255C55.3927 8.93255 56.3629 9.90565 56.3643 11.8841C56.3658 14.3646 56.3673 16.845 56.3614 19.3254C56.3614 19.5764 56.3966 19.9008 56.2616 20.0607C56.0473 20.3132 55.72 20.5744 55.4103 20.6141C54.9891 20.6698 54.6985 20.3469 54.628 19.9052C54.5987 19.7144 54.6075 19.5162 54.6075 19.321C54.606 16.8406 54.6075 14.3602 54.606 11.8797C54.606 10.8919 54.3991 10.6909 53.3952 10.6909C40.5043 10.6909 27.6148 10.6909 14.7239 10.6894C14.4891 10.6894 14.2513 10.7041 14.0223 10.6674C13.582 10.5969 13.3178 10.3093 13.2855 9.87629C13.2518 9.44038 13.4778 9.11895 13.9078 9.00007C14.1295 8.93842 14.3702 8.93402 14.6021 8.93402C17.9411 8.92962 21.2816 8.93109 24.6207 8.93109C24.8291 8.93255 25.039 8.93255 25.312 8.93255ZM33.2963 8.90026C33.2963 8.33373 33.2963 7.82737 33.2963 7.32101C33.2963 6.96288 33.1143 6.77502 32.7591 6.77502C31.0434 6.77208 29.3276 6.75887 27.6133 6.7941C27.4299 6.7985 27.1202 7.07149 27.0967 7.25056C27.0277 7.78187 27.0718 8.32932 27.0718 8.90026C29.1618 8.90026 31.1975 8.90026 33.2963 8.90026Z" fill="white"/>
<path d="M23.4738 38.105C23.4738 36.1911 23.4708 34.2772 23.4752 32.3647C23.4767 31.3931 23.7688 31.0981 24.7287 31.0937C25.7047 31.0893 26.6807 31.0849 27.6582 31.0952C28.4772 31.104 28.8104 31.4181 28.8118 32.2282C28.8206 36.1529 28.8206 40.0776 28.8118 44.0022C28.8104 44.7904 28.4801 45.1133 27.7066 45.1221C26.6719 45.1338 25.6372 45.1338 24.6024 45.1221C23.7981 45.1133 23.4811 44.7889 23.4782 43.9626C23.4694 42.0105 23.4738 40.057 23.4738 38.105ZM27.0197 43.3461C27.0197 39.8369 27.0197 36.376 27.0197 32.8975C26.4121 32.8975 25.8426 32.8975 25.2776 32.8975C25.2776 36.4053 25.2776 39.8662 25.2776 43.3461C25.8647 43.3461 26.4077 43.3461 27.0197 43.3461Z" fill="white"/>
<path d="M31.5439 40.3461C31.5439 39.1558 31.5395 37.9655 31.5454 36.7751C31.5498 35.9092 31.8404 35.6083 32.6975 35.5995C33.7117 35.5892 34.7274 35.5892 35.7416 35.5995C36.5767 35.6083 36.8658 35.893 36.8688 36.7355C36.8776 39.1543 36.879 41.5746 36.8688 43.9933C36.8658 44.8123 36.5459 45.1147 35.7225 45.1205C34.7083 45.1294 33.6941 45.1294 32.6785 45.1205C31.8668 45.1132 31.5512 44.7918 31.5468 43.9728C31.538 42.7649 31.5439 41.5555 31.5439 40.3461ZM35.0752 43.3446C35.0752 41.3368 35.0752 39.3803 35.0752 37.4063C34.4705 37.4063 33.904 37.4063 33.3433 37.4063C33.3433 39.4126 33.3433 41.3691 33.3433 43.3446C33.9245 43.3446 34.4632 43.3446 35.0752 43.3446Z" fill="white"/>
<path d="M20.7488 40.3296C20.7488 41.539 20.7547 42.7484 20.7473 43.9593C20.7415 44.7827 20.4259 45.1129 19.626 45.1217C18.5913 45.1335 17.558 45.1335 16.5233 45.1217C15.7439 45.1129 15.4166 44.8003 15.4137 44.0107C15.4019 41.5713 15.4005 39.132 15.4137 36.6941C15.4181 35.903 15.7307 35.6095 16.5306 35.6007C17.5639 35.5889 18.5986 35.5875 19.6333 35.6007C20.4464 35.6109 20.7415 35.9236 20.7473 36.7587C20.7547 37.949 20.7488 39.1393 20.7488 40.3296ZM17.2087 37.381C17.2087 39.402 17.2087 41.36 17.2087 43.3164C17.8222 43.3164 18.3931 43.3164 18.942 43.3164C18.942 41.3101 18.942 39.3536 18.942 37.381C18.3506 37.381 17.8104 37.381 17.2087 37.381Z" fill="white"/>
<path d="M41.3753 43.3665C42.2324 43.3665 43.025 43.3621 43.819 43.368C44.5265 43.3738 44.9036 43.6718 44.9139 44.2192C44.9257 44.7726 44.5441 45.1131 43.8572 45.1204C42.8063 45.1322 41.7539 45.1336 40.7016 45.1204C39.9501 45.1116 39.6302 44.7902 39.6214 44.0519C39.6111 43.2931 39.6096 42.5328 39.6228 41.774C39.6346 41.1723 39.9707 40.8039 40.48 40.7965C40.9893 40.7877 41.3459 41.1503 41.3709 41.7462C41.3929 42.2657 41.3753 42.7868 41.3753 43.3665Z" fill="white"/>
<path d="M56.7132 32.4158C56.6369 32.0357 56.4974 31.2945 56.3345 30.5577C56.2802 30.3126 56.1569 30.0822 56.085 29.84C55.9235 29.294 56.1099 28.8566 56.5664 28.6732C57.0141 28.4941 57.4676 28.6893 57.7083 29.2074C58.2763 30.4329 58.5552 31.7304 58.448 33.0748C58.1236 37.1419 55.539 40.0421 51.5527 40.8654C47.0439 41.7974 42.2738 38.2617 41.8452 33.6707C41.4402 29.3322 43.8267 25.7759 48.0273 24.6047C50.5693 23.8958 52.9353 24.4359 55.0781 25.9535C55.5214 26.2676 55.6095 26.7871 55.3365 27.1878C55.062 27.5915 54.5762 27.6986 54.0962 27.383C53.1202 26.7431 52.0972 26.2676 50.9201 26.1281C47.4328 25.7143 44.1965 28.0641 43.6432 31.5279C43.2234 34.1595 44.085 36.3801 46.2484 37.952C48.425 39.5342 50.8188 39.7162 53.2024 38.4437C55.4201 37.2593 56.5561 35.3175 56.7132 32.4158Z" fill="white"/>
</svg>
