<svg width="68" height="68" viewBox="0 0 68 68" fill="none" xmlns="http://www.w3.org/2000/svg">
<path d="M64 46.148C63.5977 47.2235 62.9605 48.0626 61.7613 48.3052C61.4967 48.3585 61.2196 48.371 60.9472 48.3726C42.9812 48.3757 25.0168 48.3757 7.05082 48.3741C5.15184 48.3741 4.00274 47.2109 4.00117 45.2979C3.99961 42.3484 3.99961 39.4005 4.00117 36.4511C4.00274 34.5364 5.1534 33.3764 7.05239 33.3764C25.0184 33.3748 42.9828 33.3795 60.9488 33.3701C62.5425 33.3686 63.474 34.1858 64 35.6026C64 39.1172 64 42.6333 64 46.148ZM19.024 46.5002C19.2306 46.5002 19.384 46.5002 19.5375 46.5002C33.3204 46.5002 47.1033 46.5002 60.8862 46.5002C61.8083 46.5002 62.1229 46.1887 62.1229 45.276C62.1261 42.4063 62.1245 39.5367 62.1245 36.6671C62.1245 35.5039 61.8756 35.2519 60.728 35.2519C47.0422 35.2519 33.3579 35.2519 19.6721 35.2519C19.4639 35.2519 19.2557 35.2519 19.024 35.2519C19.024 39.0185 19.024 42.7194 19.024 46.5002ZM17.0999 35.2503C13.7184 35.2503 10.401 35.2488 7.08526 35.2519C6.18039 35.2519 5.87511 35.5681 5.87511 36.498C5.87354 39.4052 5.87354 42.3124 5.87511 45.2196C5.87511 46.209 6.16943 46.4986 7.17137 46.5002C10.293 46.5018 13.4147 46.5018 16.5363 46.5002C16.7226 46.5002 16.9105 46.483 17.0999 46.4751C17.0999 42.7163 17.0999 39.0154 17.0999 35.2503Z" fill="white"/>
<path d="M8.69113 24.0005C8.69113 26.1014 8.69113 28.1116 8.69113 30.1233C8.69113 30.319 8.70366 30.5178 8.67235 30.7072C8.59407 31.18 8.18234 31.5228 7.72364 31.4915C7.23519 31.4587 6.93148 31.1816 6.83598 30.7041C6.79841 30.5162 6.8172 30.3143 6.8172 30.1201C6.8172 25.0619 6.81563 20.0037 6.8172 14.9455C6.81876 11.3917 9.21402 9.00117 12.7756 9.00117C26.9358 8.99961 41.0944 8.99961 55.2546 9.00117C58.7849 9.00117 61.188 11.3917 61.1911 14.9079C61.1958 20.0053 61.1926 25.1026 61.1926 30.2C61.1926 30.3362 61.2005 30.4739 61.1848 30.6101C61.13 31.1299 60.7512 31.49 60.2627 31.4947C59.7758 31.4994 59.3829 31.1424 59.325 30.6274C59.3062 30.4536 59.3156 30.2767 59.3156 30.0998C59.3156 26.4286 59.3156 22.7559 59.3156 19.0847C59.3156 18.8734 59.3156 18.6605 59.3156 18.4116C50.5377 18.4116 41.7989 18.4116 33.0194 18.4116C32.9897 18.5274 32.9552 18.6526 32.9271 18.7795C32.2226 21.9042 29.6191 23.9911 26.3785 23.9958C20.7347 24.0052 15.0894 23.9989 9.44572 23.9989C9.21402 24.0005 8.98389 24.0005 8.69113 24.0005ZM59.3156 16.5C59.3156 15.8958 59.3172 15.3525 59.3156 14.8108C59.3031 12.4657 57.7203 10.8767 55.3767 10.8767C41.1257 10.8735 26.8747 10.8735 12.6253 10.8767C10.2864 10.8767 8.69896 12.4719 8.6927 14.8155C8.688 17.0605 8.69113 19.3055 8.69113 21.5504C8.69113 21.7352 8.69113 21.9199 8.69113 22.1172C14.7779 22.1172 20.7692 22.15 26.762 22.0999C29.0806 22.0812 30.9905 20.1305 31.1784 17.8041C31.2676 16.6926 31.4742 16.5 32.5795 16.4985C41.2275 16.4985 49.8755 16.4985 58.5234 16.4985C58.7567 16.5 58.99 16.5 59.3156 16.5Z" fill="white"/>
<path d="M33.9708 59.6254C26.9213 59.6254 19.8717 59.6254 12.8221 59.6254C9.18698 59.6254 6.81677 57.2505 6.81521 53.6106C6.81521 52.8498 6.80738 52.0874 6.81834 51.3265C6.82617 50.6737 7.18154 50.2682 7.73104 50.2557C8.30089 50.2416 8.67975 50.6627 8.68758 51.3438C8.69697 52.1641 8.68758 52.9844 8.69071 53.8048C8.7001 56.1499 10.2829 57.7483 12.6202 57.7499C17.4624 57.7546 22.3061 57.7515 27.1498 57.7515C36.4835 57.7515 45.8187 57.7515 55.1524 57.7515C57.8122 57.7515 59.3136 56.2407 59.3152 53.5668C59.3152 52.806 59.3058 52.0435 59.3183 51.2827C59.3292 50.6502 59.7253 50.2416 60.2748 50.2573C60.804 50.2714 61.1813 50.6674 61.1828 51.2733C61.186 52.4052 61.2705 53.5511 61.128 54.6674C60.7476 57.6419 58.4259 59.6191 55.4123 59.6254C51.5267 59.6348 47.6395 59.627 43.7538 59.6285C40.4928 59.6254 37.2318 59.6254 33.9708 59.6254Z" fill="white"/>
<path d="M22.7396 41.8097C22.4265 41.8097 22.1134 41.8269 21.8035 41.8066C21.2493 41.769 20.8751 41.3745 20.8829 40.8626C20.8892 40.3725 21.2477 39.9733 21.769 39.9499C22.4312 39.9217 23.0982 39.9185 23.7588 39.9514C24.2739 39.9765 24.6292 40.3992 24.6214 40.886C24.6152 41.3729 24.2551 41.7612 23.7338 41.8019C23.4034 41.8269 23.07 41.8066 22.7381 41.8066C22.7396 41.8081 22.7396 41.8081 22.7396 41.8097Z" fill="white"/>
<path d="M28.3616 41.8132C28.108 41.8132 27.8544 41.8179 27.6008 41.8117C26.9182 41.7976 26.4971 41.4297 26.508 40.8598C26.5174 40.3103 26.9229 39.9518 27.5726 39.9393C28.1189 39.9299 28.6669 39.9283 29.2133 39.9393C29.8504 39.9534 30.2575 40.3369 30.2496 40.888C30.2402 41.4375 29.8332 41.7929 29.1851 41.8101C28.908 41.8179 28.634 41.8132 28.3616 41.8132Z" fill="white"/>
<path d="M33.9881 41.8099C33.675 41.8099 33.3619 41.8271 33.0519 41.8068C32.4993 41.7692 32.1251 41.3731 32.1329 40.8627C32.1408 40.3727 32.4977 39.9735 33.0206 39.9516C33.6828 39.9234 34.3497 39.9203 35.0104 39.9547C35.5254 39.9813 35.8792 40.404 35.8714 40.8909C35.8636 41.3778 35.5035 41.752 34.9838 41.8099C34.9446 41.8146 34.9055 41.8146 34.8663 41.8146C34.5736 41.8146 34.2808 41.8146 33.9881 41.8146C33.9881 41.8115 33.9881 41.8099 33.9881 41.8099Z" fill="white"/>
<path d="M39.6803 41.8067C39.3296 41.8067 38.9758 41.8301 38.6267 41.8004C38.1101 41.7566 37.7547 41.3558 37.7578 40.8689C37.761 40.3789 38.1179 39.9734 38.6377 39.9499C39.2999 39.9202 39.9652 39.9186 40.6274 39.9515C41.1441 39.9766 41.4994 40.393 41.4963 40.8799C41.4932 41.3667 41.1347 41.7581 40.6149 41.802C40.3065 41.8286 39.9918 41.8067 39.6803 41.8067Z" fill="white"/>
<path d="M45.2474 39.9437C45.5793 39.9437 45.9127 39.9218 46.2431 39.9484C46.7628 39.9907 47.1197 40.3805 47.1229 40.8705C47.126 41.3574 46.7691 41.7738 46.2524 41.7989C45.5902 41.8318 44.9249 41.8302 44.2627 41.8005C43.7429 41.777 43.386 41.3684 43.3828 40.8799C43.3797 40.3915 43.7351 39.9923 44.2517 39.9484C44.5805 39.9203 44.9155 39.9437 45.2474 39.9437Z" fill="white"/>
<path d="M14.3895 39.9252C14.2533 40.4277 14.1687 40.9537 13.9652 41.4281C13.8196 41.7678 13.8869 41.9494 14.1264 42.178C14.69 42.7165 15.2395 43.2707 15.7843 43.8296C16.2728 44.3306 16.3072 44.8644 15.8986 45.2715C15.4885 45.6801 14.9577 45.6425 14.4568 45.1525C13.8994 44.6077 13.3437 44.0598 12.8051 43.4946C12.575 43.2535 12.3934 43.1925 12.0568 43.3427C10.5962 43.9956 9.00717 43.6825 7.9066 42.5772C6.81856 41.4845 6.51485 39.825 7.14576 38.4113C7.77823 36.9945 9.18877 36.1257 10.7527 36.1899C12.7096 36.2744 14.3159 37.9479 14.3895 39.9252ZM12.4357 40.0238C12.4826 39.0031 11.6874 38.1248 10.6666 38.0669C9.64747 38.0106 8.75512 38.8027 8.69563 39.8187C8.63457 40.8661 9.45021 41.7678 10.4929 41.807C11.5136 41.8461 12.3887 41.043 12.4357 40.0238Z" fill="white"/>
<path d="M47.5364 14.6264C45.0363 14.6264 42.5377 14.6264 40.0375 14.6264C39.8622 14.6264 39.6822 14.6436 39.5115 14.6123C39.0074 14.5168 38.7021 14.2084 38.7021 13.6902C38.7021 13.172 39.0059 12.8604 39.5115 12.7681C39.701 12.7336 39.9013 12.7524 40.0955 12.7524C45.0942 12.7524 50.0945 12.7524 55.0932 12.7524C55.2889 12.7524 55.4877 12.7336 55.6772 12.7665C56.1828 12.8573 56.4865 13.1704 56.4881 13.6886C56.4881 14.2068 56.1813 14.5168 55.6787 14.6123C55.5081 14.6451 55.328 14.6264 55.1527 14.6264C52.6134 14.6264 50.0741 14.6264 47.5364 14.6264Z" fill="white"/>
<path d="M13.3914 14.6274C14.9162 14.629 16.1843 15.8987 16.1812 17.4235C16.1796 18.9859 14.91 20.2539 13.3538 20.2446C11.8259 20.2352 10.5672 18.9749 10.5625 17.447C10.5594 15.8924 11.829 14.6259 13.3914 14.6274ZM13.3664 16.5029C12.8638 16.5061 12.4443 16.9256 12.4396 17.4282C12.4349 17.9323 12.8466 18.3581 13.3491 18.3706C13.8736 18.3831 14.3166 17.9401 14.3057 17.4156C14.2947 16.9131 13.8689 16.4998 13.3664 16.5029Z" fill="white"/>
<path d="M22.7499 17.4455C22.7374 19.0079 21.4584 20.265 19.9023 20.2462C18.3743 20.2274 17.1266 18.9578 17.1328 17.4267C17.1375 15.8737 18.4181 14.6166 19.9821 14.6275C21.5022 14.6385 22.7609 15.9191 22.7499 17.4455ZM19.9367 16.503C19.4342 16.5046 19.013 16.9226 19.0068 17.4251C19.0005 17.9292 19.4107 18.3566 19.9132 18.3707C20.4377 18.3848 20.8823 17.9433 20.8744 17.4188C20.8635 16.9163 20.4392 16.5014 19.9367 16.503Z" fill="white"/>
<path d="M29.3062 17.4614C29.3031 18.9847 28.0288 20.2512 26.504 20.2481C24.9431 20.2449 23.6766 18.9706 23.6876 17.416C23.6985 15.8865 24.9588 14.6341 26.4899 14.6294C28.046 14.6263 29.3109 15.8975 29.3062 17.4614ZM27.4307 17.4614C27.4448 16.9605 27.0378 16.5253 26.5368 16.5018C26.0359 16.4799 25.5944 16.8791 25.5662 17.3816C25.5365 17.906 25.9623 18.3616 26.4883 18.3694C26.9893 18.3788 27.4167 17.9655 27.4307 17.4614Z" fill="white"/>
</svg>
