<svg width="68" height="68" viewBox="0 0 68 68" fill="none" xmlns="http://www.w3.org/2000/svg">
<g clip-path="url(#clip0_6_488)">
<path d="M-0.000357838 65.2702C0.583356 64.0959 1.70465 64.3336 2.78337 64.3143C2.79757 64.019 2.82063 63.7673 2.82063 63.5157C2.8224 58.8201 2.82063 54.1245 2.8224 49.4288C2.8224 47.9819 3.26241 47.545 4.71726 47.5433C7.26147 47.5415 9.80745 47.5398 12.3517 47.5433C13.7107 47.545 14.1738 48.0081 14.1755 49.3677C14.1773 54.0633 14.1755 58.7589 14.1773 63.4545C14.1773 63.7132 14.1773 63.9718 14.1773 64.2741C16.0633 64.2741 17.889 64.2741 19.8211 64.2741C19.8211 63.991 19.8211 63.7167 19.8211 63.4441C19.8211 54.1402 19.8211 44.8363 19.8211 35.5325C19.8211 33.9772 20.254 33.5508 21.8277 33.5508C24.3063 33.5508 26.7848 33.5508 29.2634 33.5508C30.7023 33.5508 31.176 34.0121 31.176 35.4276C31.1778 44.7542 31.176 54.079 31.176 63.4056C31.176 63.6835 31.176 63.9631 31.176 64.2794C33.0762 64.2794 34.9018 64.2794 36.8197 64.2794C36.8197 63.9788 36.8197 63.7044 36.8197 63.4283C36.8197 56.0031 36.8197 48.576 36.8197 41.1508C36.8197 39.543 37.2189 39.1533 38.869 39.1533C41.3706 39.1533 43.8704 39.1516 46.3721 39.1551C47.6921 39.1568 48.1747 39.6304 48.1747 40.9341C48.1764 48.4258 48.1764 55.9174 48.1764 63.4074C48.1764 63.6852 48.1764 63.9631 48.1764 64.2794C50.0784 64.2794 51.904 64.2794 53.8202 64.2794C53.8202 63.9771 53.8202 63.7009 53.8202 63.4248C53.8202 50.4302 53.8202 37.4355 53.8202 24.4391C53.8202 24.1997 53.8078 23.9568 53.8326 23.7191C53.9178 22.8995 54.4341 22.3928 55.2697 22.3875C58.0801 22.3718 60.8904 22.3718 63.7007 22.3858C64.5701 22.391 65.0882 22.9065 65.1627 23.7646C65.184 24.004 65.1716 24.2451 65.1716 24.4846C65.1716 37.4582 65.1716 50.4302 65.1716 63.4039C65.1716 63.6817 65.1716 63.9596 65.1716 64.3161C65.5495 64.3161 65.8529 64.3143 66.1562 64.3161C67.2261 64.3196 67.7779 64.6533 67.9571 65.3995C68.1167 66.0654 67.7779 66.6263 66.9298 67.1016C44.9722 67.1016 23.0146 67.1016 1.05884 67.1016C0.704002 66.7521 0.350935 66.4026 -0.00390625 66.0531C-0.000357838 65.7945 -0.000357838 65.5324 -0.000357838 65.2702ZM62.2707 64.2339C62.2707 51.2008 62.2707 38.2062 62.2707 25.1975C60.3972 25.1975 58.5715 25.1975 56.721 25.1975C56.721 38.2254 56.721 51.2218 56.721 64.2339C58.5946 64.2339 60.4185 64.2339 62.2707 64.2339ZM22.7148 36.3765C22.7148 45.6996 22.7148 54.9493 22.7148 64.2182C24.5937 64.2182 26.4335 64.2182 28.2805 64.2182C28.2805 54.9143 28.2805 45.6647 28.2805 36.3765C26.4176 36.3765 24.5937 36.3765 22.7148 36.3765ZM45.288 41.9791C43.3861 41.9791 41.5604 41.9791 39.7294 41.9791C39.7294 49.4219 39.7294 56.8261 39.7294 64.2287C41.6083 64.2287 43.4322 64.2287 45.288 64.2287C45.288 56.7947 45.288 49.4061 45.288 41.9791ZM5.73388 50.3638C5.73388 55.0175 5.73388 59.6274 5.73388 64.2252C7.61454 64.2252 9.43842 64.2252 11.2889 64.2252C11.2889 59.5838 11.2889 54.993 11.2889 50.3638C9.4331 50.3638 7.60744 50.3638 5.73388 50.3638Z" fill="#F8FDFE"/>
<path d="M60.2943 -0.000205592C60.6722 0.113384 61.0555 0.209498 61.4263 0.342311C64.4176 1.4153 65.9292 4.69891 64.7795 7.6138C63.6192 10.5549 60.2163 11.9809 57.2746 10.7069C56.7246 10.4693 56.4443 10.5549 56.0451 10.9533C53.3111 13.69 50.5522 16.4039 47.7879 19.1108C47.5005 19.3922 47.4136 19.5931 47.6052 19.9933C48.6449 22.169 48.1854 24.6662 46.4821 26.3334C44.7807 27.9988 42.2223 28.4217 40.04 27.3941C37.8843 26.3806 36.6512 24.1839 36.8748 21.7583C36.8819 21.6727 36.8766 21.5853 36.8766 21.4368C35.1308 20.9405 33.3761 20.4424 31.6196 19.9444C31.577 19.9322 31.5291 19.9339 31.4901 19.9147C30.7591 19.5687 30.2978 19.7242 29.7531 20.4075C28.1368 22.4259 24.9042 23.1651 22.0921 21.2585C21.5989 21.6447 21.0861 22.0449 20.5752 22.4486C18.361 24.1909 16.1503 25.9384 13.9272 27.6685C13.6079 27.9166 13.4961 28.0966 13.6735 28.523C14.6103 30.7826 14.2377 32.8534 12.5558 34.6411C11.0282 36.2646 8.58508 36.7993 6.51281 35.9745C4.21699 35.0623 2.97327 33.341 2.84552 30.9084C2.6273 26.7807 7.13023 23.92 10.9696 25.741C11.4078 25.9489 11.6562 25.9017 12.0093 25.6204C14.7487 23.443 17.504 21.2865 20.1121 19.2349C20.0411 18.0501 19.8335 16.9648 19.9436 15.9128C20.2221 13.2461 22.7468 11.1683 25.5146 11.1788C28.3001 11.1892 30.7644 13.2601 31.0678 15.9373C31.1548 16.7027 31.4173 17.0347 32.1873 17.22C34.0095 17.6604 35.8014 18.2283 37.6111 18.7159C37.8187 18.7718 38.1505 18.7351 38.2977 18.6023C40.5474 16.5821 42.5913 16.2554 45.4992 17.5765C45.792 17.241 46.1024 16.8408 46.4608 16.4878C49.037 13.9329 51.6202 11.3867 54.2052 8.84231C54.4483 8.6029 54.6204 8.43863 54.427 8.02272C52.8231 4.5661 54.6861 0.943462 58.4669 0.101151C58.5503 0.0819285 58.6248 0.0329975 58.7046 -0.00195312C59.2316 -0.000205592 59.7621 -0.000205592 60.2943 -0.000205592ZM56.6803 5.59015C56.6785 7.13497 57.94 8.38621 59.4977 8.38621C61.0572 8.38621 62.3134 7.13847 62.3151 5.59015C62.3151 4.04184 61.0572 2.79235 59.4977 2.79061C57.94 2.79061 56.6803 4.04184 56.6803 5.59015ZM39.6798 22.3438C39.6692 23.8938 40.9129 25.1503 42.4706 25.1625C44.0302 25.1748 45.3023 23.9358 45.3129 22.3927C45.3236 20.8461 44.0799 19.5879 42.5203 19.5669C40.9768 19.5477 39.6905 20.8024 39.6798 22.3438ZM11.3156 30.7826C11.328 29.236 10.0843 27.9761 8.52476 27.9568C6.9741 27.9359 5.69312 29.1871 5.68248 30.7319C5.67006 32.282 6.91378 33.5402 8.47331 33.5524C10.0328 33.5629 11.3032 32.3257 11.3156 30.7826ZM28.3143 16.7377C28.3001 15.1859 27.0457 13.9801 25.4596 13.9958C23.8841 14.0115 22.6652 15.2453 22.6794 16.8111C22.6936 18.3664 23.9479 19.5704 25.5341 19.5547C27.1078 19.5407 28.3284 18.3017 28.3143 16.7377Z" fill="#F8FDFE"/>
</g>
<defs>
<clipPath id="clip0_6_488">
<rect width="68" height="67.1053" fill="white"/>
</clipPath>
</defs>
</svg>
