<svg width="66" height="68" viewBox="0 0 66 68" fill="none" xmlns="http://www.w3.org/2000/svg">
<g clip-path="url(#clip0_6_493)">
<path d="M17.7329 0C17.9647 0.428542 18.2624 0.835833 18.4158 1.29094C18.6172 1.88948 18.7064 2.52698 18.8651 3.24062C19.5497 2.79792 20.1826 2.39948 20.8031 1.98333C21.37 1.60083 21.8728 1.63979 22.356 2.13031C23.0406 2.82625 23.7359 3.51333 24.4348 4.19688C24.9037 4.65552 24.9554 5.14073 24.5935 5.68437C24.1781 6.30948 23.7734 6.94167 23.3152 7.64469C23.9517 7.78458 24.524 7.90854 25.0963 8.03781C26.4531 8.34062 26.4655 8.35656 26.6153 9.79625C26.8417 9.79625 27.0789 9.79625 27.316 9.79625C35.7616 9.79625 44.2071 9.79448 52.6527 9.80333C53.0646 9.80333 53.3391 9.70594 53.5994 9.36063C54.17 8.60448 54.9901 8.26979 55.9279 8.26448C58.0228 8.25208 60.1177 8.23615 62.2126 8.26802C63.8529 8.29281 65.0706 9.4226 65.1205 11.05C65.1865 13.2175 65.1793 15.3885 65.1259 17.556C65.0902 19.0099 64.0882 20.0954 62.7207 20.3451C61.3497 20.5966 60.0927 19.913 59.4741 18.5796C59.4295 18.484 59.3867 18.3866 59.3118 18.2219C59.0997 18.4202 58.9232 18.5743 58.7574 18.739C54.1557 23.3077 49.554 27.8782 44.9524 32.4487C43.683 33.7096 42.7434 33.7078 41.474 32.4434C40.012 30.9878 38.5518 29.5304 36.9311 27.9136C36.7653 28.1704 36.6637 28.4095 36.4925 28.5795C33.9787 31.0905 31.4666 33.6051 28.9313 36.0931C27.234 37.7595 24.5258 37.0653 23.9552 34.8287C23.6914 33.7928 23.9214 32.8419 24.6862 32.0698C26.1553 30.5876 27.6387 29.1178 29.1274 27.6551C29.6248 27.1664 30.1811 27.1469 30.609 27.5559C31.0529 27.9792 31.0333 28.56 30.5163 29.0771C29.106 30.4937 27.685 31.8998 26.2623 33.3023C25.8914 33.6671 25.7132 34.0584 26.002 34.5436C26.3497 35.1263 26.9879 35.1918 27.5228 34.68C28.2609 33.9734 28.9759 33.2439 29.7015 32.5249C31.6074 30.6319 33.5133 28.7353 35.4228 26.8441C36.5318 25.7461 37.5569 25.7426 38.6605 26.837C40.1707 28.3351 41.6719 29.8403 43.28 31.4447C43.4868 31.1808 43.6295 30.9506 43.8185 30.7647C48.9033 25.7054 53.9935 20.6515 59.0836 15.5957C59.1942 15.4859 59.31 15.3815 59.4135 15.2664C59.7415 14.9016 60.1462 14.744 60.6133 14.914C61.125 15.0999 61.2712 15.5338 61.2694 16.0349C61.2677 16.4989 61.2659 16.9646 61.2766 17.4285C61.2891 18.0023 61.5939 18.3458 62.1662 18.4007C62.6797 18.4503 63.1219 18.0324 63.1272 17.4303C63.1486 15.3496 63.1468 13.2689 63.1272 11.1899C63.1219 10.5825 62.735 10.2584 62.1324 10.2549C60.0606 10.2443 57.9871 10.2407 55.9154 10.2584C55.2985 10.2638 54.9206 10.671 54.9669 11.2218C55.0133 11.7884 55.3288 12.1054 55.9261 12.1036C56.4164 12.1019 56.9067 12.1054 57.397 12.1072C57.8873 12.109 58.3526 12.2878 58.424 12.7712C58.4774 13.1272 58.3526 13.6301 58.1137 13.8886C57.1046 14.9795 56.0224 16.0048 54.9669 17.0531C51.6115 20.3876 48.2561 23.7221 44.8989 27.0548C43.6972 28.2483 42.7291 28.2412 41.515 27.0353C40.16 25.6895 38.805 24.3436 37.4482 22.9996C37.3252 22.8774 37.1914 22.7676 37.0203 22.6135C36.0129 23.6176 35.0252 24.6057 34.0322 25.5868C33.6595 25.9569 33.2209 26.0436 32.7538 25.778C32.3313 25.539 32.1976 25.1388 32.3188 24.696C32.3794 24.4765 32.5434 24.2657 32.7092 24.0993C33.6613 23.1359 34.6187 22.1779 35.5904 21.2323C36.4872 20.3593 37.6015 20.3522 38.493 21.2323C40.0583 22.7747 41.6023 24.3383 43.1142 25.8506C46.2182 22.7658 49.283 19.72 52.3585 16.6653C43.2248 16.6653 34.0607 16.6653 25.1141 16.6653C24.0248 17.7349 23.0691 18.7478 22.0136 19.6474C21.7926 19.8351 21.1561 19.7147 20.8048 19.5447C20.1363 19.2189 19.5354 18.7549 18.8544 18.3157C18.6868 19.102 18.5406 19.7926 18.3926 20.4815C18.2179 21.2996 17.9451 21.5386 17.1267 21.5457C16.1461 21.5546 15.1655 21.5422 14.185 21.5493C13.5502 21.5546 13.1883 21.2394 13.0582 20.6391C12.9013 19.9059 12.7462 19.1728 12.5661 18.3175C11.9189 18.7354 11.3341 19.1161 10.744 19.4933C9.95771 19.9963 9.58865 19.9732 8.93611 19.2915C8.14272 18.4645 7.38499 17.6021 6.59695 16.768C6.50959 16.6742 6.3313 16.6264 6.19402 16.6246C4.83545 16.614 3.47867 16.6175 2.04343 16.6175C2.02917 16.8831 2.00421 17.1169 2.00421 17.3489C2.00243 26.6227 2.00064 35.8966 2.00421 45.1704C2.00421 47.2671 3.10782 48.3491 5.2259 48.3526C6.33843 48.3544 7.45096 48.3526 8.60984 48.3526C8.9789 46.3551 9.94166 44.7401 11.6015 43.5696C12.8353 42.6983 14.2188 42.2539 15.7307 42.2539C19.1503 42.2539 21.3415 44.1274 22.857 48.3526C23.078 48.3526 23.3187 48.3526 23.5612 48.3526C35.2374 48.3526 46.9154 48.3526 58.5915 48.3526C60.7488 48.3526 61.8489 47.2689 61.8489 45.1385C61.8507 38.2996 61.8489 31.4606 61.8489 24.6217C61.8489 24.4003 61.8346 24.1772 61.8596 23.9576C61.922 23.4264 62.2304 23.1058 62.7689 23.0686C63.343 23.0279 63.6978 23.3343 63.8243 23.8761C63.8743 24.0869 63.8529 24.3171 63.8529 24.5367C63.8547 31.4199 63.8564 38.3031 63.8529 45.1864C63.8511 48.3349 61.84 50.3413 58.6842 50.343C54.0042 50.3466 49.3258 50.343 44.6457 50.343C44.4015 50.343 44.159 50.343 43.8185 50.343C44.1554 51.6694 44.4781 52.9426 44.8044 54.2123C45.6691 57.5733 46.5409 60.9326 47.4021 64.2954C47.8959 66.2274 47.2505 67.3235 45.3054 67.8937C45.2466 67.9115 45.1966 67.961 45.1432 67.9965C44.7866 67.9965 44.43 67.9965 44.0734 67.9965C42.8682 67.6441 42.1158 66.9092 41.8109 65.6536C41.0799 62.6468 40.2901 59.6541 39.5181 56.656C38.9797 54.5629 38.4359 52.4698 37.8975 50.3908C36.7867 50.3908 35.7295 50.3908 34.6169 50.3908C34.6169 50.7007 34.6169 50.9628 34.6169 51.2249C34.6169 55.7175 34.5813 60.2119 34.6348 64.7045C34.6544 66.3638 34.0322 67.4634 32.44 67.9947C32.0834 67.9947 31.7269 67.9947 31.3703 67.9947C29.7746 67.4174 29.1845 66.2841 29.2076 64.6124C29.27 60.1269 29.229 55.6396 29.229 51.1541C29.229 50.8991 29.229 50.6423 29.229 50.343C28.3162 50.343 27.4943 50.3802 26.6777 50.3306C26.1339 50.297 25.9111 50.4688 25.7773 51C24.581 55.7511 23.3259 60.4881 22.1545 65.2464C21.814 66.6294 21.1953 67.6441 19.7387 67.9965C19.3821 67.9965 19.0255 67.9965 18.6689 67.9965C16.2478 66.9641 15.9358 66.3053 16.615 63.688C17.2355 61.2921 17.847 58.8926 18.4586 56.4949C18.5049 56.316 18.521 56.1301 18.5584 55.9052C13.8426 57.6938 9.29269 54.7276 8.57596 50.3448C7.67204 50.3448 6.75919 50.3731 5.84992 50.3359C5.03157 50.3041 4.18291 50.3235 3.40557 50.1075C1.25896 49.5125 0.00380149 47.646 0.00380149 45.2005C-0.0015472 35.1085 0.00201859 25.0166 0.00380149 14.9246C0.00380149 14.659 0.0180647 14.3933 0.0430252 14.1295C0.249841 12.047 1.67616 10.4178 3.73362 9.92375C4.09376 9.83698 4.46461 9.79625 4.81762 9.73604C4.98165 8.31938 4.98165 8.31938 6.40083 8.01656C6.94996 7.89969 7.50088 7.78458 8.12489 7.65354C7.65599 6.9399 7.24414 6.31125 6.83229 5.68437C6.47928 5.14427 6.52029 4.65552 6.99454 4.1951C7.68095 3.53104 8.34775 2.8475 9.02882 2.17812C9.62252 1.59552 9.95593 1.56542 10.678 2.02229C11.2895 2.40833 11.8939 2.80323 12.5607 3.23177C12.7301 2.465 12.8282 1.785 13.0421 1.14396C13.1794 0.733125 13.4878 0.378958 13.7196 0C15.0586 0 16.3957 0 17.7329 0ZM22.5004 5.21333C22.0814 4.8025 21.707 4.43594 21.3023 4.03927C20.8316 4.34385 20.3324 4.67323 19.8278 4.99375C18.6921 5.71802 17.198 5.10177 16.9217 3.79844C16.7951 3.1999 16.6578 2.6049 16.5277 2.01521C15.9518 2.01521 15.4455 2.01521 14.8874 2.01521C14.7466 2.67396 14.6253 3.32208 14.4684 3.96135C14.201 5.05396 12.6909 5.66844 11.7335 5.07875C11.1683 4.73167 10.6156 4.36333 10.0718 4.01271C9.67066 4.41115 9.29625 4.78125 8.90224 5.17437C9.2285 5.67729 9.55477 6.17667 9.87748 6.67781C10.6067 7.8076 10.0094 9.28094 8.70255 9.57135C8.22473 9.6776 7.73444 9.73604 7.27088 9.88656C7.10508 9.93969 6.95175 10.1805 6.89113 10.3665C6.82516 10.5666 6.89469 10.8056 6.87152 11.0252C6.82516 11.4502 6.9571 11.6716 7.42778 11.7211C7.91094 11.7707 8.38876 11.9 8.86301 12.0186C9.95593 12.2914 10.5639 13.7842 9.96841 14.7369C9.61896 15.2965 9.2499 15.8419 8.94146 16.3129C9.34261 16.7574 9.69562 17.147 10.0593 17.5525C10.5692 17.2249 11.0756 16.9416 11.532 16.5927C12.1186 16.1465 12.7016 16.1783 13.3523 16.4139C14.2117 16.7255 14.4542 17.3984 14.6111 18.2024C14.8892 19.6279 14.9159 19.6244 16.3761 19.5376C16.4171 19.5358 16.4581 19.504 16.5437 19.4685C16.665 18.916 16.7969 18.337 16.9199 17.7544C17.1945 16.4581 18.6957 15.8383 19.8243 16.5608C20.3431 16.892 20.8583 17.2267 21.2595 17.487C21.7141 17.0655 22.0992 16.7096 22.5004 16.3377C22.183 15.8543 21.8728 15.3407 21.5198 14.8608C21.1543 14.3615 21.1365 13.8532 21.3272 13.2936C21.5947 12.5127 22.0832 12.07 22.9425 11.9266C24.6131 11.645 24.6078 11.6078 24.5436 10.1168C24.5418 10.0743 24.5151 10.0335 24.4865 9.95385C23.8786 9.82458 23.2492 9.69177 22.6198 9.55719C21.4859 9.31635 20.8405 7.80406 21.4592 6.82125C21.8015 6.2776 22.1563 5.74281 22.5004 5.21333ZM55.1024 14.2623C55.0792 14.1773 55.0578 14.0905 55.0347 14.0055C54.2003 13.7045 53.5174 13.2033 53.2018 12.3728C53.02 11.8947 52.7829 11.7725 52.2872 11.7743C43.9575 11.792 35.6261 11.7867 27.2964 11.7867C27.061 11.7867 26.8257 11.7867 26.5993 11.7867C26.5012 13.1484 26.4031 13.2582 25.1284 13.5239C24.5489 13.6443 23.9713 13.7647 23.3615 13.8922C23.5523 14.4181 23.8037 14.6395 24.3546 14.6395C34.2443 14.6218 44.134 14.6306 54.0238 14.6111C54.3821 14.6094 54.7423 14.3845 55.1024 14.2623ZM20.8405 49.3779C20.8512 46.557 18.5584 44.2514 15.7325 44.2443C12.8888 44.2372 10.5799 46.5092 10.5657 49.3266C10.5514 52.1192 12.8799 54.4514 15.6897 54.4584C18.5388 54.4655 20.8298 52.2059 20.8405 49.3779ZM40.0262 50.3784C40.053 50.5715 40.0601 50.745 40.1029 50.9097C41.3313 55.6821 42.5615 60.4545 43.7971 65.2251C43.9647 65.875 44.3765 66.1353 44.9631 65.9866C45.4926 65.8538 45.6424 65.5208 45.4659 64.8355C44.7901 62.2023 44.1091 59.5708 43.4334 56.9376C42.8735 54.7577 42.3155 52.5778 41.7521 50.3767C41.1619 50.3784 40.6128 50.3784 40.0262 50.3784ZM22.8712 50.366C22.914 50.4174 22.9568 50.4688 22.9996 50.5183C22.4202 51.6198 21.8407 52.7212 21.2666 53.8262C21.1953 53.9626 21.1418 54.1114 21.1044 54.2583C20.188 57.8283 19.2787 61.3983 18.3534 64.9666C18.2517 65.3561 18.2517 65.7333 18.6475 65.8608C18.9702 65.9635 19.4053 65.9653 19.7012 65.8254C19.9152 65.7245 20.0346 65.3314 20.1095 65.0445C21.0117 61.586 21.9013 58.1223 22.7892 54.6603C23.1529 53.2419 23.5095 51.8199 23.8786 50.3643C23.4881 50.366 23.1797 50.366 22.8712 50.366ZM31.2687 50.3714C31.2526 50.529 31.2384 50.6157 31.2384 50.7025C31.2366 55.4997 31.2366 60.2951 31.2366 65.0923C31.2366 65.2021 31.1991 65.3615 31.2562 65.4146C31.4773 65.6218 31.7197 65.9228 31.9729 65.9405C32.1655 65.9547 32.4222 65.62 32.5809 65.3933C32.6665 65.2711 32.6112 65.0498 32.6112 64.8727C32.6112 60.2756 32.613 55.6768 32.6112 51.0797C32.6112 50.8477 32.588 50.614 32.5755 50.3696C32.1066 50.3714 31.7144 50.3714 31.2687 50.3714ZM2.07731 14.6253C3.7354 14.6253 5.39706 14.6023 7.05872 14.6377C7.62746 14.6501 7.91094 14.4429 8.03396 13.8886C7.30654 13.731 6.61478 13.5841 5.92302 13.4318C5.11358 13.2547 4.91568 13.028 4.86754 12.2382C4.86041 12.1107 4.8408 11.9832 4.82653 11.861C3.3182 11.7123 2.01491 13.005 2.07731 14.6253Z" fill="#7968EF"/>
<path d="M13.891 24.8129C15.4921 24.8129 17.0949 24.8094 18.696 24.8147C19.6141 24.8182 19.9475 25.137 19.9582 26.0472C19.9725 27.1734 19.9725 28.3014 19.9565 29.4277C19.944 30.2777 19.5803 30.6478 18.728 30.6513C15.4796 30.662 12.2329 30.662 8.98451 30.6513C8.09127 30.6496 7.73113 30.2777 7.72221 29.3923C7.7133 28.266 7.71152 27.138 7.72221 26.0118C7.73113 25.1582 8.08236 24.8164 8.95063 24.8129C10.5998 24.8076 12.2454 24.8129 13.891 24.8129ZM9.75472 28.6113C12.5022 28.6113 15.1979 28.6113 17.915 28.6113C17.915 27.9969 17.915 27.4337 17.915 26.8529C15.1765 26.8529 12.479 26.8529 9.75472 26.8529C9.75472 27.4479 9.75472 27.9951 9.75472 28.6113Z" fill="#7968EF"/>
<path d="M47.1718 43.6952C44.1676 43.6952 41.1617 43.6952 38.1575 43.6952C37.9578 43.6952 37.7492 43.7165 37.5584 43.674C37.0414 43.5571 36.7347 43.2189 36.7383 42.6894C36.7419 42.1918 37.0325 41.8624 37.5174 41.7385C37.7064 41.6906 37.915 41.7048 38.1147 41.7048C44.1908 41.703 50.2669 41.703 56.343 41.7048C56.5213 41.7048 56.705 41.6853 56.8761 41.7225C57.4199 41.8429 57.7426 42.1705 57.7194 42.746C57.698 43.2879 57.3718 43.589 56.8529 43.681C56.6586 43.7147 56.4536 43.6952 56.2539 43.6952C53.2265 43.6952 50.1992 43.6952 47.1718 43.6952Z" fill="#7968EF"/>
<path d="M51.0837 39.3231C49.3026 39.3231 47.5214 39.3267 45.7403 39.3214C44.9398 39.3196 44.4959 38.9725 44.478 38.3598C44.4602 37.717 44.9238 37.3345 45.7475 37.3327C49.3329 37.3292 52.9165 37.3292 56.5019 37.3327C57.2864 37.3345 57.7285 37.7064 57.725 38.3332C57.7232 38.9601 57.2881 39.309 56.493 39.3214C56.3593 39.3231 56.2255 39.3214 56.0918 39.3214C54.423 39.3231 52.7542 39.3231 51.0837 39.3231Z" fill="#7968EF"/>
<path d="M12.2502 34.4144C11.1395 34.4144 10.027 34.4215 8.91622 34.4127C8.19058 34.4074 7.73951 34.0266 7.7306 33.4405C7.72168 32.8561 8.18167 32.4311 8.88948 32.4294C11.1128 32.4187 13.336 32.4187 15.5575 32.4294C16.2849 32.4329 16.7039 32.8331 16.6932 33.4476C16.6825 34.0621 16.2742 34.4074 15.5183 34.4144C14.4289 34.4215 13.3396 34.4144 12.2502 34.4144Z" fill="#7968EF"/>
<path d="M15.6935 6.57141C18.0238 6.5537 19.9529 8.45735 19.9546 10.7771C19.9546 13.0651 18.0648 14.9669 15.7648 14.9953C13.4435 15.0236 11.4912 13.1253 11.4681 10.8161C11.4413 8.5087 13.3526 6.58912 15.6935 6.57141ZM15.7434 13.0031C16.9469 12.9854 17.9453 11.9795 17.9471 10.7825C17.9507 9.55527 16.913 8.54235 15.6793 8.56537C14.4615 8.58839 13.472 9.58183 13.472 10.7807C13.4738 11.9955 14.5204 13.0208 15.7434 13.0031Z" fill="#7968EF"/>
<path d="M16.6955 49.3636C16.6955 49.8258 16.7187 50.2915 16.6884 50.7519C16.6527 51.3151 16.3265 51.648 15.7541 51.6728C15.1801 51.6976 14.7771 51.3894 14.745 50.8369C14.6898 49.8488 14.688 48.8536 14.7468 47.8655C14.7807 47.313 15.2032 46.9995 15.7648 47.0349C16.3211 47.0686 16.6599 47.4068 16.6902 47.9753C16.7151 48.4357 16.6973 48.8996 16.6955 49.3636Z" fill="#7968EF"/>
</g>
<defs>
<clipPath id="clip0_6_493">
<rect width="65.1667" height="68" fill="white"/>
</clipPath>
</defs>
</svg>
