<svg width="68" height="68" viewBox="0 0 68 68" fill="none" xmlns="http://www.w3.org/2000/svg">
<g clip-path="url(#clip0_6_503)">
<path d="M46.4953 35.0706C45.6958 35.0706 44.9983 35.0706 44.2498 35.0706C44.2498 27.9257 44.2498 20.8147 44.2498 13.5979C43.9511 13.5979 43.7035 13.5979 43.4559 13.5979C31.007 13.5979 18.56 13.5979 6.11115 13.5979C3.72004 13.5979 2.35532 14.974 2.35343 17.3802C2.35154 18.7223 2.35343 20.0662 2.35343 21.465C1.61436 21.465 0.899862 21.465 0.00390625 21.465C0.0984163 19.4859 -0.0187762 17.4615 0.342252 15.5259C0.826144 12.942 3.20402 11.3373 5.99396 11.3354C16.8853 11.3316 27.7785 11.3335 38.6699 11.3335C40.5015 11.3335 42.335 11.3335 44.2006 11.3335C44.2006 10.5661 44.2006 9.86857 44.2006 9.06901C43.5258 9.06901 42.8529 9.05956 42.18 9.07279C41.6091 9.08413 41.1593 8.90267 40.9287 8.34696C40.7075 7.81392 40.9154 7.39051 41.2935 7.01058C43.4748 4.82929 45.6542 2.64044 47.8449 0.464814C48.4762 -0.160843 49.0509 -0.153282 49.6916 0.481826C51.8824 2.65934 54.0618 4.8463 56.245 7.03138C56.6249 7.41131 56.812 7.84227 56.5795 8.37342C56.3508 8.89322 55.9274 9.08035 55.383 9.07279C54.7064 9.06334 54.0278 9.0709 53.3189 9.0709C53.3189 9.84022 53.3189 10.5377 53.3189 11.2938C53.5231 11.307 53.7253 11.3316 53.9276 11.3335C55.1298 11.3373 56.3319 11.3335 57.5341 11.3354C61.065 11.3448 63.4674 13.7529 63.4712 17.3027C63.4769 23.9978 63.4731 30.6948 63.4731 37.3899C63.4731 38.1139 63.4731 38.8397 63.4731 39.5977C62.7076 39.5977 62.0101 39.5977 61.2086 39.5977C61.2086 39.3255 61.2086 39.0552 61.2086 38.783C61.2086 32.7003 61.116 26.6158 61.2332 20.535C61.358 14.0497 60.7285 13.3636 54.2357 13.5979C53.954 13.6074 53.6724 13.5998 53.3152 13.5998C53.3152 20.38 53.3152 27.1318 53.3152 33.9289C52.5251 33.9289 51.8106 33.9289 51.0205 33.9289C51.0205 33.6605 51.0205 33.4091 51.0205 33.1559C51.0205 24.9278 51.0205 16.6998 51.0205 8.47171C51.0205 7.15424 51.2983 6.86126 52.4438 6.7951C51.2265 5.57781 49.9317 4.28302 48.6879 3.03738C47.5349 4.19229 46.2439 5.48519 44.9586 6.77242C45.0512 6.77998 45.244 6.79132 45.4349 6.81778C46.0511 6.90284 46.4046 7.2582 46.484 7.8763C46.501 8.01617 46.4934 8.15794 46.4934 8.2997C46.4934 17.023 46.4934 25.7463 46.4934 34.4695C46.4953 34.6491 46.4953 34.8344 46.4953 35.0706Z" fill="#63DE9D"/>
<path d="M19.3298 42.9962C20.1237 42.9962 20.8212 42.9962 21.5943 42.9962C21.5943 42.7146 21.5943 42.4613 21.5943 42.2099C21.5943 36.9759 21.5943 31.7419 21.5943 26.5061C21.5943 25.2529 21.9326 24.9183 23.1877 24.9164C25.1913 24.9145 27.1968 24.9126 29.2004 24.9164C30.2627 24.9183 30.6483 25.302 30.6483 26.3662C30.6521 31.6002 30.6502 36.8342 30.6502 42.07C30.6502 42.3517 30.6502 42.6333 30.6502 42.9697C31.3912 42.9697 32.1057 42.9697 32.9147 42.9697C32.9147 42.707 32.9147 42.4348 32.9147 42.1607C32.9147 34.3088 32.9147 26.4569 32.9147 18.605C32.9147 17.314 33.2436 16.9908 34.5535 16.9908C36.5817 16.9908 38.6098 16.9851 40.6361 16.9927C41.5264 16.9965 41.965 17.4085 41.965 18.2743C41.9725 24.5233 41.9687 30.7704 41.9668 37.0194C41.9668 37.1101 41.9479 37.199 41.9328 37.3256C41.2145 37.3256 40.5152 37.3256 39.7402 37.3256C39.7402 31.3412 39.7402 25.3455 39.7402 19.3006C38.194 19.3006 36.7253 19.3006 35.2037 19.3006C35.2037 27.9351 35.2037 36.5563 35.2037 45.2323C25.3822 45.2323 15.6137 45.2323 5.79785 45.2323C5.79785 44.5311 5.79785 43.8166 5.79785 43.0472C7.26276 43.0472 8.71632 43.0472 10.2776 43.0472C10.2776 42.7486 10.2776 42.501 10.2776 42.2534C10.2776 39.6127 10.2757 36.9721 10.2776 34.3315C10.2795 33.2144 10.65 32.8402 11.752 32.8383C13.7802 32.8345 15.8065 32.8345 17.8347 32.8383C18.9499 32.8402 19.3279 33.2125 19.3298 34.3126C19.3336 36.9305 19.3317 39.5466 19.3317 42.1645C19.3298 42.4235 19.3298 42.6805 19.3298 42.9962ZM28.3347 42.9962C28.3347 37.698 28.3347 32.4583 28.3347 27.2395C26.815 27.2395 25.3463 27.2395 23.8946 27.2395C23.8946 32.5207 23.8946 37.7433 23.8946 42.9962C25.3841 42.9962 26.8358 42.9962 28.3347 42.9962ZM12.5969 35.133C12.5969 37.8095 12.5969 40.4085 12.5969 42.9886C14.1072 42.9886 15.5588 42.9886 17.02 42.9886C17.02 40.3499 17.02 37.7509 17.02 35.133C15.5229 35.133 14.0713 35.133 12.5969 35.133Z" fill="#63DE9D"/>
<path d="M2.40045 49.7952C2.40045 50.4587 2.32484 51.0106 2.41368 51.5342C2.70288 53.2297 4.09029 54.3431 5.8822 54.345C12.1539 54.3525 18.4256 54.3487 24.6954 54.3487C27.9012 54.3487 31.1088 54.3487 34.3146 54.3487C34.5698 54.3487 34.8269 54.3487 35.1293 54.3487C35.1293 55.1067 35.1293 55.8231 35.1293 56.5962C32.4112 56.5962 29.7101 56.5962 26.9693 56.5962C26.0639 59.6092 25.1717 62.5806 24.2606 65.6143C29.2886 65.6143 34.2598 65.6143 39.2896 65.6143C38.8832 64.2402 38.4844 62.8924 38.0667 61.4824C38.7755 61.2612 39.4427 61.0514 40.2083 60.8132C40.6997 62.4256 41.1817 64.0096 41.6788 65.6446C42.5049 65.6446 43.3195 65.6446 44.1815 65.6446C44.1815 66.4196 44.1815 67.1359 44.1815 67.8901C35.9307 67.8901 27.6895 67.8901 19.3877 67.8901C19.3877 67.1964 19.3877 66.4819 19.3877 65.6673C20.0398 65.6673 20.7146 65.6918 21.3856 65.6521C21.5917 65.6408 21.9168 65.4915 21.9659 65.3365C22.8543 62.4634 23.7087 59.5789 24.5952 56.6132C24.2701 56.6132 24.0187 56.6132 23.7673 56.6132C17.8963 56.6132 12.0272 56.6151 6.15628 56.6132C2.47228 56.6113 0.0887307 54.2372 0.0887307 50.5627C0.0868405 41.9093 0.0887307 33.2579 0.0887307 24.6045C0.0887307 24.3701 0.0887307 24.1339 0.0887307 23.8428C0.825909 23.8428 1.54041 23.8428 2.33429 23.8428C2.33429 31.7098 2.33429 39.5938 2.33429 47.5516C12.9327 47.5516 23.4554 47.5516 34.0122 47.5516C34.0122 48.3247 34.0122 49.0221 34.0122 49.7971C23.4838 49.7952 12.9591 49.7952 2.40045 49.7952Z" fill="#63DE9D"/>
<path d="M56.8083 61.556C49.7314 65.4725 42.1839 62.6826 38.653 57.4751C34.9898 52.0729 35.6381 44.8712 40.2464 40.2213C44.8037 35.6244 52.098 34.9212 57.4378 38.4975C62.7549 42.0586 65.5524 49.661 61.6189 56.7568C63.0384 58.1726 64.4712 59.6016 65.9021 61.0306C66.2858 61.4143 66.6809 61.7866 67.0476 62.1836C68.3291 63.5748 68.3159 65.5935 67.0287 66.9072C65.7206 68.2436 63.6528 68.3022 62.2635 66.9658C60.515 65.2835 58.8195 63.5445 57.1013 61.8301C57.0182 61.747 56.9293 61.6695 56.8083 61.556ZM49.9356 38.5013C43.6185 38.5069 38.5698 43.5651 38.5736 49.8803C38.5774 56.0745 43.6714 61.1307 49.9148 61.1383C56.1109 61.1459 61.222 56.0272 61.2087 49.8273C61.1955 43.5859 56.1298 38.4956 49.9356 38.5013ZM58.6967 60.2329C60.3865 61.9208 62.0593 63.605 63.7492 65.2722C64.2935 65.809 64.9797 65.8071 65.4371 65.327C65.8756 64.8658 65.8586 64.2193 65.3539 63.6882C64.7226 63.0247 64.061 62.3877 63.4127 61.7375C62.3731 60.696 61.3354 59.6564 60.2977 58.6168C59.7495 59.1706 59.2543 59.6696 58.6967 60.2329Z" fill="#63DE9D"/>
<path d="M55.5869 2.25288C55.5869 1.50625 55.5869 0.787975 55.5869 0.0734787C59.0365 -0.19682 62.3954 3.13938 62.3085 6.75912C61.594 6.75912 60.8757 6.75912 60.1045 6.75912C60.0175 5.56829 59.6206 4.48899 58.7587 3.6195C57.893 2.74433 56.8155 2.33983 55.5869 2.25288Z" fill="#63DE9D"/>
<path d="M7.9764 15.9097C7.9764 16.6639 7.9764 17.3613 7.9764 18.091C7.24679 18.091 6.55119 18.091 5.80078 18.091C5.80078 17.384 5.80078 16.6714 5.80078 15.9097C6.50016 15.9097 7.21276 15.9097 7.9764 15.9097Z" fill="#63DE9D"/>
<path d="M10.3037 18.0741C10.3037 17.3313 10.3037 16.6338 10.3037 15.9004C11.0295 15.9004 11.7251 15.9004 12.4793 15.9004C12.4793 16.596 12.4793 17.3086 12.4793 18.0741C11.7913 18.0741 11.0768 18.0741 10.3037 18.0741Z" fill="#63DE9D"/>
<path d="M14.8398 15.8926C15.5732 15.8926 16.2688 15.8926 17.0155 15.8926C17.0155 16.609 17.0155 17.3235 17.0155 18.0814C16.3047 18.0814 15.5903 18.0814 14.8398 18.0814C14.8398 17.3688 14.8398 16.6732 14.8398 15.8926Z" fill="#63DE9D"/>
<path d="M58.9441 49.814C58.9346 54.8079 54.8801 58.8718 49.9108 58.8699C44.8829 58.8681 40.8303 54.8117 40.8359 49.7856C40.8416 44.7823 44.932 40.741 49.9732 40.7618C54.8953 40.7845 58.9535 44.8787 58.9441 49.814ZM49.8938 56.6093C53.6666 56.5941 56.7004 53.5226 56.6796 49.7403C56.6588 46.0506 53.5891 43.0206 49.8824 43.0282C46.1342 43.0376 43.0985 46.0789 43.0985 49.8234C43.1004 53.5623 46.1663 56.6225 49.8938 56.6093Z" fill="#63DE9D"/>
<path d="M49.8501 47.5177C48.5459 47.7029 47.7804 48.4401 47.5932 49.7859C46.8712 49.7859 46.151 49.7859 45.4327 49.7859C45.204 47.7464 47.2227 45.2457 49.8501 45.3307C49.8501 46.0509 49.8501 46.7711 49.8501 47.5177Z" fill="#63DE9D"/>
</g>
<defs>
<clipPath id="clip0_6_503">
<rect width="68" height="67.9376" fill="white"/>
</clipPath>
</defs>
</svg>
